<svg xmlns="http://www.w3.org/2000/svg" width="32" height="32" viewBox="0 0 32 32">
  <rect x="0" y="0" width="32" height="32" fill="#4a4550"/>
  <ellipse cx="8" cy="9" rx="7" ry="4" fill="rgba(30,28,34,0.4)" transform="rotate(12 8 9)"/>
  <ellipse cx="24" cy="7" rx="6" ry="3.6" fill="rgba(70,66,76,0.35)" transform="rotate(-18 24 7)"/>
  <ellipse cx="11" cy="24" rx="8" ry="4.5" fill="rgba(30,28,34,0.4)" transform="rotate(45 11 24)"/>
  <ellipse cx="25" cy="21" rx="6.5" ry="3.9" fill="rgba(70,66,76,0.3)" transform="rotate(105 25 21)"/>
  <ellipse cx="17" cy="15" rx="7" ry="4" fill="rgba(30,28,34,0.3)" transform="rotate(160 17 15)"/>
  <g fill="#2e2a34">
    <circle cx="9" cy="14" r="1.1"/>
    <circle cx="22" cy="11" r="1.3"/>
    <circle cx="14" cy="26" r="1"/>
    <circle cx="27" cy="27" r="1.2"/>
    <circle cx="4" cy="22" r="0.9"/>
  </g>
  <g fill="#6a6472">
    <circle cx="12" cy="6" r="0.9"/>
    <circle cx="20" cy="23" r="1"/>
    <circle cx="6" cy="17" r="0.8"/>
  </g>
</svg>
