<svg xmlns="http://www.w3.org/2000/svg" width="48" height="64" viewBox="0 0 48 64">
  <rect x="21" y="34" width="6" height="26" fill="#b9bcc4"/>
  <rect x="21" y="34" width="2.5" height="26" fill="#9a9ea8"/>
  <!-- Silvery branches radiating from the crown, rather than a solid leafy
       canopy — the "silver branches" the road takes its name from. -->
  <g stroke="#c9cdd6" stroke-width="2.4" stroke-linecap="round" fill="none">
    <path d="M24 36 L10 24"/>
    <path d="M24 34 L6 30"/>
    <path d="M24 30 L8 16"/>
    <path d="M24 26 L14 8"/>
    <path d="M24 24 L24 4"/>
    <path d="M24 26 L34 8"/>
    <path d="M24 30 L40 16"/>
    <path d="M24 34 L42 30"/>
    <path d="M24 36 L38 24"/>
  </g>
  <g stroke="#e8eaf0" stroke-width="1.2" stroke-linecap="round" fill="none">
    <path d="M17 30 L10 24"/>
    <path d="M17 22 L8 16"/>
    <path d="M20 18 L14 8"/>
    <path d="M24 15 L24 4"/>
    <path d="M28 18 L34 8"/>
    <path d="M31 22 L40 16"/>
    <path d="M31 30 L42 30"/>
  </g>
  <g fill="#dfe2ea">
    <circle cx="10" cy="24" r="3.2"/>
    <circle cx="6" cy="30" r="2.6"/>
    <circle cx="8" cy="16" r="3"/>
    <circle cx="14" cy="8" r="3.4"/>
    <circle cx="24" cy="4" r="3.6"/>
    <circle cx="34" cy="8" r="3.4"/>
    <circle cx="40" cy="16" r="3"/>
    <circle cx="42" cy="30" r="2.6"/>
    <circle cx="38" cy="24" r="3.2"/>
  </g>
  <g fill="rgba(140,146,162,0.4)">
    <circle cx="10" cy="24" r="1.2"/>
    <circle cx="24" cy="4" r="1.3"/>
    <circle cx="40" cy="16" r="1.1"/>
  </g>
</svg>
