<svg xmlns="http://www.w3.org/2000/svg" width="48" height="64" viewBox="0 0 48 64">
  <rect x="21" y="38" width="6" height="22" fill="#241414"/>
  <rect x="21" y="38" width="2.5" height="22" fill="#180d0d"/>
  <!-- Bare, gnarled branches instead of a leafy canopy — a dead-looking
       "haunted forest" tree. Item 25 shifted the palette from a cool
       purple-black to a warmer red-black to match Direfell's new floor. -->
  <g stroke="#301c1c" stroke-width="2.6" stroke-linecap="round" fill="none">
    <path d="M24 40 L9 26"/>
    <path d="M24 37 L6 33"/>
    <path d="M24 32 L10 16"/>
    <path d="M24 27 L16 6"/>
    <path d="M24 24 L24 3"/>
    <path d="M24 27 L33 6"/>
    <path d="M24 32 L39 16"/>
    <path d="M24 37 L41 33"/>
    <path d="M24 40 L38 26"/>
  </g>
  <g stroke="#180d0d" stroke-width="1.3" stroke-linecap="round" fill="none">
    <path d="M9 26 L3 21"/>
    <path d="M9 26 L13 18"/>
    <path d="M10 16 L4 12"/>
    <path d="M16 6 L10 2"/>
    <path d="M24 3 L18 -2"/>
    <path d="M39 16 L45 12"/>
    <path d="M41 33 L46 30"/>
  </g>
  <g fill="rgba(140,30,30,0.2)">
    <circle cx="24" cy="20" r="14"/>
  </g>
</svg>
